HIERARCHY
ROOT joint_Root
{
	OFFSET 0.0 0.0 0.0
	CHANNELS 6 Xposition Yposition Zposition Zrotation Xrotation Yrotation 
	JOINT Hips
	{
		OFFSET 4.5925 91.4895 -427.239
		CHANNELS 6 Xposition Yposition Zposition Zrotation Xrotation Yrotation 
		JOINT Spine
		{
			OFFSET 15.7357 0.0 0.0
			CHANNELS 6 Xposition Yposition Zposition Zrotation Xrotation Yrotation 
			JOINT Chest
			{
				OFFSET 8.98455 -0.406207 0.0
				CHANNELS 6 Xposition Yposition Zposition Zrotation Xrotation Yrotation 
				JOINT Neck
				{
					OFFSET 16.3773 0.0 0.0
					CHANNELS 6 Xposition Yposition Zposition Zrotation Xrotation Yrotation 
					JOINT Head
					{
						OFFSET 6.45672 0.0 0.0
						CHANNELS 6 Xposition Yposition Zposition Zrotation Xrotation Yrotation 
						End Site
						{
							OFFSET 0.0 0.0 0.0
						}
					}
				}
				JOINT Shoulder_L
				{
					OFFSET 12.9942 -0.242716 4.98039
					CHANNELS 6 Xposition Yposition Zposition Zrotation Xrotation Yrotation 
					JOINT UpperArm_L
					{
						OFFSET 5.34809 0.0 0.0
						CHANNELS 6 Xposition Yposition Zposition Zrotation Xrotation Yrotation 
						JOINT LowerArm_L
						{
							OFFSET 24.3286 1.87007e-05 0.0
							CHANNELS 6 Xposition Yposition Zposition Zrotation Xrotation Yrotation 
							JOINT Hand_L
							{
								OFFSET 22.2916 0.0 0.0
								CHANNELS 6 Xposition Yposition Zposition Zrotation Xrotation Yrotation 
								End Site
								{
									OFFSET 0.0 0.0 0.0
								}
							}
						}
					}
				}
				JOINT Shoulder_R
				{
					OFFSET 12.9945 -0.242716 -4.98039
					CHANNELS 6 Xposition Yposition Zposition Zrotation Xrotation Yrotation 
					JOINT UpperArm_R
					{
						OFFSET -5.34813 0.0 0.0
						CHANNELS 6 Xposition Yposition Zposition Zrotation Xrotation Yrotation 
						JOINT LowerArm_R
						{
							OFFSET -24.3289 0.000322201 0.0
							CHANNELS 6 Xposition Yposition Zposition Zrotation Xrotation Yrotation 
							JOINT Hand_R
							{
								OFFSET -22.2915 -0.000108084 0.0
								CHANNELS 6 Xposition Yposition Zposition Zrotation Xrotation Yrotation 
								End Site
								{
									OFFSET 0.0 0.0 0.0
								}
							}
						}
					}
				}
			}
		}
		JOINT UpperLeg_L
		{
			OFFSET -2.19248 -6.46944 0.0
			CHANNELS 6 Xposition Yposition Zposition Zrotation Xrotation Yrotation 
			JOINT LowerLeg_L
			{
				OFFSET 39.0811 0.0 -1.23785e-05
				CHANNELS 6 Xposition Yposition Zposition Zrotation Xrotation Yrotation 
				JOINT Foot_L
				{
					OFFSET 40.9854 0.0 -1.26872e-05
					CHANNELS 6 Xposition Yposition Zposition Zrotation Xrotation Yrotation 
					JOINT Toes_L
					{
						OFFSET 11.7543 0.0 0.0
						CHANNELS 6 Xposition Yposition Zposition Zrotation Xrotation Yrotation 
						End Site
						{
							OFFSET 0.0 0.0 0.0
						}
					}
				}
			}
		}
		JOINT UpperLeg_R
		{
			OFFSET -2.19251 6.46944 0.0
			CHANNELS 6 Xposition Yposition Zposition Zrotation Xrotation Yrotation 
			JOINT LowerLeg_R
			{
				OFFSET -39.0811 -0.00228153 -0.0401928
				CHANNELS 6 Xposition Yposition Zposition Zrotation Xrotation Yrotation 
				JOINT Foot_R
				{
					OFFSET -40.9854 0.0 0.0
					CHANNELS 6 Xposition Yposition Zposition Zrotation Xrotation Yrotation 
					JOINT Toes_R
					{
						OFFSET -11.7543 0.0 0.0
						CHANNELS 6 Xposition Yposition Zposition Zrotation Xrotation Yrotation 
						End Site
						{
							OFFSET 0.0 0.0 0.0
						}
					}
				}
			}
		}
	}
}
MOTION
Frames:	4
Frame Time:	0.0333333
0.000000 0.000000 0.000000 0.000000 0.000000 -0.000000 -1.754620 90.242700 1.082370 88.131600 -1.741110 12.152500 15.735700 0.000005 -0.000001 88.607700 79.712200 -88.893000 8.984550 -0.406207 -0.000000 12.802600 -0.507533 -0.513619 16.377300 -0.000001 -0.000001 11.762700 -4.803770 0.552961 6.456720 -0.000001 -0.000000 -7.246010 -4.762080 -2.462480 12.994200 -0.242716 4.980390 -90.711100 2.684960 -75.160300 5.348090 -0.000007 -0.000001 -77.761000 -29.226000 -54.492300 24.328600 0.000019 0.000005 40.792800 -7.594680 -98.707400 22.291600 -0.000001 0.000005 30.021800 4.867910 10.011700 12.994500 -0.242716 -4.980390 89.263200 4.489080 -80.669600 -5.348130 -0.000001 -0.000004 -66.242600 -26.825100 -53.263300 -24.328900 0.000322 -0.000009 22.459900 -3.701250 -98.875800 -22.291500 -0.000108 -0.000004 36.683500 5.209230 2.486780 -2.192480 -6.469440 -0.000000 -172.164000 -11.407100 0.964300 39.081100 -0.000007 -0.000012 -0.205922 0.306332 33.910100 40.985400 -0.000006 -0.000013 -0.002214 6.178720 -72.345800 11.754300 -0.000000 0.000003 -0.000248 -0.002222 -16.660800 -2.192510 6.469440 -0.000001 174.313000 20.853700 -176.044000 -39.081100 -0.002282 -0.040193 -0.285313 0.472127 31.438000 -40.985400 0.000008 0.000006 4.627500 15.680800 -72.812200 -11.754300 -0.000006 -0.000006 -0.002046 -0.029295 -17.764300
0.000000 0.000000 0.000000 0.000000 0.000000 -0.000000 -1.724800 90.230300 1.148130 88.156300 -1.551510 12.186100 15.735700 0.000005 -0.000001 88.741800 79.705300 -89.030800 8.984550 -0.406207 -0.000000 12.817600 -0.460356 -0.526297 16.377300 -0.000001 -0.000001 11.867000 -4.783870 0.539188 6.456720 -0.000001 -0.000000 -7.076870 -4.830030 -2.446090 12.994200 -0.242716 4.980390 -90.731000 2.735290 -75.031400 5.348090 -0.000007 -0.000001 -78.576500 -30.146300 -54.293300 24.328600 0.000019 0.000005 40.374600 -7.468840 -98.691600 22.291600 -0.000001 0.000005 30.306800 4.859080 10.184100 12.994500 -0.242716 -4.980390 89.244500 4.592130 -80.646900 -5.348130 -0.000001 -0.000004 -67.324700 -28.359300 -52.810400 -24.328900 0.000322 -0.000009 22.373000 -3.555010 -98.567100 -22.291500 -0.000108 -0.000004 36.897500 5.202810 2.648580 -2.192480 -6.469440 -0.000000 -172.223000 -11.283000 0.995820 39.081100 -0.000007 -0.000012 -0.206082 0.306224 33.940000 40.985400 -0.000006 -0.000013 0.028328 6.212580 -72.397400 11.754300 -0.000000 0.000003 -0.000233 -0.002107 -16.656700 -2.192510 6.469440 -0.000001 174.214000 20.955400 -175.942000 -39.081100 -0.002282 -0.040193 -0.282265 0.466671 31.463700 -40.985400 0.000008 0.000006 4.582370 15.607300 -72.876500 -11.754300 -0.000006 -0.000006 -0.002030 -0.029089 -17.756000
0.000000 0.000000 0.000000 0.000000 0.000000 -0.000000 -1.692470 90.215400 1.208990 88.167900 -1.351530 12.221200 15.735700 0.000005 -0.000001 88.893900 79.707400 -89.173800 8.984550 -0.406207 -0.000000 12.814700 -0.405795 -0.514350 16.377300 -0.000001 -0.000001 11.989800 -4.727420 0.492171 6.456720 -0.000001 -0.000000 -6.932040 -4.844920 -2.485790 12.994200 -0.242716 4.980390 -90.753000 2.794410 -74.913000 5.348090 -0.000007 -0.000001 -78.811100 -30.389200 -54.083900 24.328600 0.000019 0.000005 40.035300 -7.415830 -98.733900 22.291600 -0.000001 0.000005 30.395900 4.854720 10.269200 12.994500 -0.242716 -4.980390 89.228300 4.669750 -80.605600 -5.348130 -0.000001 -0.000004 -68.179000 -29.493700 -52.601600 -24.328900 0.000322 -0.000009 22.087000 -3.418950 -98.360900 -22.291500 -0.000108 -0.000004 36.970400 5.196800 2.799180 -2.192480 -6.469440 -0.000000 -172.270000 -11.155500 1.013950 39.081100 -0.000007 -0.000012 -0.206193 0.305795 33.991500 40.985400 -0.000006 -0.000013 0.077061 6.286680 -72.458700 11.754300 -0.000000 0.000003 -0.000227 -0.002057 -16.654900 -2.192510 6.469440 -0.000001 174.122000 21.023500 -175.843000 -39.081100 -0.002282 -0.040193 -0.286137 0.472457 31.492900 -40.985400 0.000008 0.000006 4.528510 15.538800 -72.939100 -11.754300 -0.000006 -0.000006 -0.002075 -0.029656 -17.779000
0.000000 0.000000 0.000000 0.000000 0.000000 -0.000000 -1.662300 90.209200 1.252140 88.171300 -1.142090 12.290300 15.735700 0.000005 -0.000001 88.963500 79.712900 -89.238300 8.984550 -0.406207 -0.000000 12.804100 -0.380573 -0.506932 16.377300 -0.000001 -0.000001 12.101100 -4.645350 0.396633 6.456720 -0.000001 -0.000000 -6.728740 -4.778110 -2.439150 12.994200 -0.242716 4.980390 -90.753000 2.775710 -74.816600 5.348090 -0.000007 -0.000001 -78.341100 -29.969600 -53.725600 24.328600 0.000019 0.000005 39.613800 -7.418750 -98.866900 22.291600 -0.000001 0.000005 30.419400 4.854840 10.266900 12.994500 -0.242716 -4.980390 89.218700 4.732890 -80.615400 -5.348130 -0.000001 -0.000004 -68.751200 -30.165400 -52.565400 -24.328900 0.000322 -0.000009 21.011200 -3.237170 -98.364200 -22.291500 -0.000108 -0.000004 36.933200 5.190020 2.968260 -2.192480 -6.469440 -0.000000 -172.297000 -11.038500 1.071500 39.081100 -0.000007 -0.000012 -0.206966 0.306724 34.010400 40.985400 -0.000006 -0.000013 0.124431 6.369470 -72.490900 11.754300 -0.000000 0.000003 -0.000237 -0.002139 -16.657800 -2.192510 6.469440 -0.000001 174.043000 21.123600 -175.708000 -39.081100 -0.002282 -0.040193 -0.284751 0.470156 31.495000 -40.985400 0.000008 0.000006 4.539060 15.430900 -72.992500 -11.754300 -0.000006 -0.000006 -0.001941 -0.027975 -17.710600
